<?xml version="1.0" encoding="UTF-8"?>
<svg width="223px" height="223px" viewBox="0 0 223 223" version="1.1" xmlns="http://www.w3.org/2000/svg" xmlns:xlink="http://www.w3.org/1999/xlink">
    <!-- Generator: Sketch 49.3 (51167) - http://www.bohemiancoding.com/sketch -->
    <title>icon</title>
    <desc>Created with Sketch.</desc>
    <defs></defs>
    <g id="icon" stroke="none" stroke-width="1" fill="none" fill-rule="evenodd">
        <rect id="Rectangle-Copy" fill="#FF3366" x="0" y="-1" width="224" height="224"></rect>
        <rect id="Rectangle-Copy-2" fill="#0E2846" x="0" y="170" width="224" height="53"></rect>
        <path d="M158.897983,52.4808594 L118.101141,28.6539112 C114.324369,26.4486963 109.67388,26.4486963 105.897108,28.6539112 L97.6134228,33.4929851 L97.6134228,92.8602035 C97.6134228,94.4330797 98.4433671,95.8855104 99.789838,96.6737197 L109.822709,102.533038 C111.16918,103.319476 112.829069,103.319476 114.17554,102.533038 L124.208411,96.6737197 C125.556633,95.8855104 126.386577,94.4330797 126.386577,92.8602035 L126.386577,81.1397965 C126.386577,79.5669203 125.556633,78.1127184 124.208411,77.3262803 L114.17554,71.4651911 C112.829069,70.678753 111.999125,69.2263224 111.999125,67.6516749 L111.999125,56.6805095 C111.999125,53.354089 115.550026,51.2179532 118.405805,52.8652221 C118.425065,52.8758496 118.444325,52.8882484 118.465336,52.898876 L135.782107,63.0145243 C141.131221,66.1372503 144.424734,71.9097766 144.424734,78.1569998 L144.424734,95.841229 C144.424734,102.088452 141.131221,107.86275 135.782107,110.985476 L118.465336,121.099353 C116.471019,122.263069 114.235072,122.845812 111.999125,122.845812 C109.763177,122.845812 107.52723,122.263069 105.532913,121.099353 L88.2161417,110.985476 C82.8687788,107.86275 79.5735146,102.088452 79.5735146,95.841229 L79.5735146,44.0284213 L65.1002659,52.4808594 C61.3252449,54.6860742 59,58.7617364 59,63.1721662 L59,110.826063 C59,115.238264 61.3252449,119.312155 65.1002659,121.517369 L105.897108,145.346089 C109.67388,147.551304 114.324369,147.551304 118.101141,145.346089 L158.897983,121.517369 C162.673004,119.312155 165,115.238264 165,110.826063 L165,63.1721662 C165,58.7617364 162.673004,54.6860742 158.897983,52.4808594" id="Fill-1" fill="#FFFFFF"></path>
        <path d="M31.0664062,206.310936 L31.0664062,183.093741 L37.2428768,183.093741 C39.5445475,183.093741 41.0490573,183.2046 41.7564515,183.42632 C42.8861706,183.785297 43.8179109,184.550749 44.5517004,185.7227 C45.2854899,186.894652 45.6523791,188.404441 45.6523791,190.252112 C45.6523791,191.930854 45.3356402,193.337702 44.7021529,194.4727 C44.0686655,195.607699 43.2768182,196.404825 42.3265872,196.864103 C41.3763563,197.323381 39.7398719,197.553017 37.417085,197.553017 L34.8989854,197.553017 L34.8989854,206.310936 L31.0664062,206.310936 Z M34.8989854,187.021343 L34.8989854,193.609578 L37.0211574,193.609578 C38.4465039,193.609578 39.4151971,193.509278 39.927266,193.308673 C40.4393349,193.108069 40.859014,192.746459 41.1863158,192.223832 C41.5136175,191.701205 41.677266,191.059808 41.677266,190.299624 C41.677266,189.528881 41.5083386,188.879566 41.1704786,188.35166 C40.8326187,187.823754 40.4155792,187.470062 39.9193474,187.290574 C39.4231157,187.111086 38.3725983,187.021343 36.7677637,187.021343 L34.8989854,187.021343 Z M51.5121076,194.623153 L48.2021529,193.894646 C48.6033615,192.194788 49.2658737,190.972704 50.1897094,190.228357 C51.1135451,189.484009 52.4412091,189.111841 54.1727411,189.111841 C55.7142269,189.111841 56.8914399,189.328279 57.7044153,189.761162 C58.5173907,190.194045 59.0980787,190.782651 59.4464967,191.526999 C59.7949148,192.271347 59.9691212,193.625406 59.9691212,195.589216 L59.937447,200.783786 C59.937447,202.240807 59.9955158,203.325638 60.1116551,204.038311 C60.2277945,204.750985 60.4442327,205.508518 60.7609764,206.310936 L57.1501167,206.310936 L56.6750035,204.473832 C56.0520743,205.2129 55.3842831,205.767193 54.6716099,206.136728 C53.9589366,206.506262 53.2014027,206.691026 52.3989854,206.691026 C51.0581039,206.691026 49.9600757,206.239673 49.1048678,205.336954 C48.2496599,204.434234 47.8220624,203.233266 47.8220624,201.734013 C47.8220624,200.783782 47.9962688,199.954982 48.3446868,199.247587 C48.6931048,198.540193 49.1840501,197.975342 49.8175375,197.553017 C50.4510248,197.130692 51.4645893,196.755885 52.8582615,196.428583 C54.547561,196.037932 55.724774,195.673683 56.3899357,195.335823 C56.3899357,194.406708 56.3239484,193.796985 56.1919719,193.506637 C56.0599953,193.216289 55.8171622,192.978735 55.4634651,192.793967 C55.109768,192.6092 54.6109042,192.516818 53.9668587,192.516818 C53.3122552,192.516818 52.7975544,192.66463 52.4227411,192.960257 C52.0479278,193.255884 51.7443863,193.810178 51.5121076,194.623153 Z M56.3899357,198.234013 C55.9253783,198.424059 55.2021578,198.645776 54.2202524,198.899171 C53.0905333,199.194798 52.3514759,199.522095 52.0030578,199.881071 C51.6546398,200.240048 51.4804334,200.704598 51.4804334,201.274737 C51.4804334,201.918782 51.6731162,202.459878 52.0584877,202.89804 C52.4438592,203.336202 52.926886,203.55528 53.5075827,203.55528 C54.0249307,203.55528 54.536992,203.378434 55.0437818,203.024737 C55.5505717,202.67104 55.901624,202.25136 56.0969492,201.765687 C56.2922745,201.280013 56.3899357,200.398423 56.3899357,199.12089 L56.3899357,198.234013 Z M63.2315646,207.419533 L67.4125601,208.03718 C67.4759088,208.649551 67.6685917,209.085067 67.9906144,209.343741 C68.3126371,209.602415 68.8220589,209.73175 69.5188949,209.73175 C70.3213122,209.73175 70.970627,209.599776 71.4668587,209.335823 C71.8152768,209.145776 72.0845048,208.829037 72.274551,208.385596 C72.4645972,207.942155 72.5596189,207.160866 72.5596189,206.041705 L72.5596189,203.586954 C72.0105966,204.494952 71.3929557,205.175941 70.7066777,205.62994 C70.0203998,206.08394 69.2602264,206.310936 68.4261348,206.310936 C66.895207,206.310936 65.6071355,205.619389 64.5618814,204.236275 C63.3582554,202.652557 62.7564515,200.50929 62.7564515,197.806411 C62.7564515,194.934602 63.3239421,192.76758 64.4589402,191.30528 C65.5939383,189.84298 66.9691131,189.111841 68.5845058,189.111841 C69.4397137,189.111841 70.2183635,189.338837 70.9204786,189.792836 C71.6225938,190.246835 72.2481531,190.933103 72.7971755,191.85166 L72.7971755,189.491931 L76.21799,189.491931 L76.21799,204.584691 C76.21799,207.002501 75.9962727,208.755123 75.5528316,209.84261 C75.1093905,210.930097 74.4257623,211.750978 73.5019266,212.30528 C72.5780909,212.859581 71.2979378,213.136728 69.6614289,213.136728 C68.1516174,213.136728 66.9427305,212.936126 66.034732,212.534918 C65.1267335,212.133709 64.4325474,211.534545 63.9521529,210.737406 C63.4717583,209.940268 63.2315646,209.019086 63.2315646,207.973832 L63.2315646,207.419533 Z M66.4940081,197.553017 C66.4940081,199.347898 66.7817126,200.657085 67.3571302,201.480619 C67.9325479,202.304153 68.626734,202.715913 69.4397094,202.715913 C70.3160336,202.715913 71.065649,202.298874 71.6885782,201.464782 C72.3115074,200.63069 72.6229673,199.363735 72.6229673,197.663877 C72.6229673,195.911229 72.3247049,194.615239 71.728171,193.775868 C71.1316371,192.936497 70.3952191,192.516818 69.5188949,192.516818 C68.6531289,192.516818 67.9325479,192.928579 67.3571302,193.752112 C66.7817126,194.575646 66.4940081,195.842601 66.4940081,197.553017 Z M87.8265872,200.957995 L91.4532841,201.702338 C90.9676105,203.391638 90.212716,204.645396 89.1885782,205.463651 C88.1644403,206.281905 86.9186006,206.691026 85.4510216,206.691026 C83.4133041,206.691026 81.8401674,206.010038 80.7315646,204.64804 C79.4223575,203.064321 78.7677637,200.847149 78.7677637,197.996456 C78.7677637,195.187996 79.4276365,192.939149 80.7474017,191.24985 C81.8665627,189.824503 83.3130037,189.111841 85.0867682,189.111841 C87.0611371,189.111841 88.6078788,189.84034 89.7270397,191.297361 C91.0151306,192.965544 91.6591664,195.42555 91.6591664,198.677452 L91.6433293,199.184239 L82.5053203,199.184239 C82.5264365,200.514562 82.824699,201.543964 83.4001167,202.272474 C83.9755343,203.000985 84.6697204,203.365234 85.4826958,203.365234 C86.6546474,203.365234 87.4359367,202.562829 87.8265872,200.957995 Z M88.0324696,196.460257 C88.0007952,195.15105 87.7210092,194.16652 87.1931031,193.506637 C86.665197,192.846754 86.0369981,192.516818 85.3084877,192.516818 C84.5377448,192.516818 83.88843,192.859952 83.3605239,193.54623 C82.8220597,194.243066 82.5581106,195.214399 82.5686687,196.460257 L88.0324696,196.460257 Z M102.03247,183.093741 L109.650117,183.093741 C111.730067,183.093741 113.192345,183.283785 114.036994,183.663877 C114.881644,184.043969 115.594307,184.7144 116.175004,185.675189 C116.7557,186.635978 117.046044,187.723449 117.046044,188.937633 C117.046044,190.056794 116.797932,191.067719 116.3017,191.970438 C115.805469,192.873157 115.161433,193.540949 114.369574,193.973832 C115.499293,194.37504 116.383522,195.061308 117.022289,196.032655 C117.661055,197.004002 117.980433,198.186494 117.980433,199.580167 C117.980433,201.269466 117.573952,202.697431 116.760976,203.864103 C115.948001,205.030776 114.987226,205.751357 113.878623,206.025868 C113.107881,206.215914 111.318306,206.310936 108.509845,206.310936 L102.03247,206.310936 L102.03247,183.093741 Z M105.865049,186.957995 L105.865049,192.326773 L108.398985,192.326773 C109.919355,192.326773 110.859014,192.300378 111.21799,192.247587 C111.872594,192.142006 112.384655,191.86486 112.754189,191.416139 C113.123723,190.967419 113.308488,190.357697 113.308488,189.586954 C113.308488,188.900676 113.158037,188.343743 112.85713,187.916139 C112.556224,187.488535 112.191974,187.221947 111.76437,187.116366 C111.336766,187.010784 110.109403,186.957995 108.082243,186.957995 L105.865049,186.957995 Z M105.865049,196.191026 L105.865049,202.399171 L109.428397,202.399171 C110.990999,202.399171 111.994006,202.317347 112.437447,202.153696 C112.880888,201.990045 113.253056,201.668027 113.553963,201.187633 C113.854869,200.707238 114.00532,200.097516 114.00532,199.358447 C114.00532,198.598262 113.844311,197.972703 113.522289,197.48175 C113.200266,196.990798 112.772668,196.652943 112.239483,196.468176 C111.706298,196.283408 110.616188,196.191026 108.969121,196.191026 L105.865049,196.191026 Z M130.270026,206.310936 L130.270026,203.792836 C129.763236,204.700835 129.098085,205.410858 128.274551,205.922927 C127.451018,206.434996 126.590543,206.691026 125.693103,206.691026 C124.785105,206.691026 123.972141,206.453472 123.254189,205.978357 C122.536237,205.503241 122.00042,204.827531 121.646723,203.951207 C121.293026,203.074883 121.11618,201.802648 121.11618,200.134465 L121.11618,189.491931 L124.774551,189.491931 L124.774551,197.220438 C124.774551,199.427086 124.82998,200.828655 124.940841,201.425189 C125.051701,202.021723 125.297174,202.483634 125.677266,202.810936 C126.057358,203.138238 126.51663,203.301886 127.055094,203.301886 C127.667465,203.301886 128.232316,203.088087 128.749664,202.660483 C129.267012,202.232879 129.607506,201.683865 129.771157,201.013424 C129.934808,200.342984 130.016632,198.867508 130.016632,196.586954 L130.016632,189.491931 L133.659166,189.491931 L133.659166,206.310936 L130.270026,206.310936 Z M137.460071,187.211388 L137.460071,183.093741 L141.118442,183.093741 L141.118442,187.211388 L137.460071,187.211388 Z M137.460071,206.310936 L137.460071,189.491931 L141.118442,189.491931 L141.118442,206.310936 L137.460071,206.310936 Z M144.855999,206.310936 L144.855999,183.093741 L148.51437,183.093741 L148.51437,206.310936 L144.855999,206.310936 Z M164.905773,206.310936 L161.500795,206.310936 L161.500795,203.840347 C160.941215,204.790578 160.281342,205.503241 159.521157,205.978357 C158.760973,206.453472 157.979683,206.691026 157.177266,206.691026 C155.63578,206.691026 154.292279,205.922934 153.146723,204.386728 C152.001167,202.850521 151.428397,200.657104 151.428397,197.806411 C151.428397,194.934602 151.987969,192.76758 153.10713,191.30528 C154.226291,189.84298 155.604105,189.111841 157.240614,189.111841 C158.011357,189.111841 158.731938,189.307163 159.402379,189.697814 C160.07282,190.088464 160.687821,190.674431 161.247402,191.455732 L161.247402,183.093741 L164.905773,183.093741 L164.905773,206.310936 Z M155.165954,197.53718 C155.165954,199.05755 155.295289,200.189891 155.553963,200.934239 C155.812637,201.678587 156.182166,202.238159 156.66256,202.612972 C157.142955,202.987785 157.68405,203.175189 158.285863,203.175189 C159.088281,203.175189 159.785106,202.742313 160.376361,201.876547 C160.967616,201.010781 161.263239,199.706872 161.263239,197.964782 C161.263239,196.032646 160.975534,194.641634 160.400117,193.791705 C159.824699,192.941776 159.09356,192.516818 158.206678,192.516818 C157.362028,192.516818 156.644086,192.933858 156.052832,193.767949 C155.461577,194.602041 155.165954,195.858439 155.165954,197.53718 Z M176.498533,200.957995 L180.12523,201.702338 C179.639556,203.391638 178.884662,204.645396 177.860524,205.463651 C176.836386,206.281905 175.590546,206.691026 174.122967,206.691026 C172.08525,206.691026 170.512113,206.010038 169.40351,204.64804 C168.094303,203.064321 167.439709,200.847149 167.439709,197.996456 C167.439709,195.187996 168.099582,192.939149 169.419347,191.24985 C170.538508,189.824503 171.984949,189.111841 173.758714,189.111841 C175.733083,189.111841 177.279824,189.84034 178.398985,191.297361 C179.687076,192.965544 180.331112,195.42555 180.331112,198.677452 L180.315275,199.184239 L171.177266,199.184239 C171.198382,200.514562 171.496645,201.543964 172.072062,202.272474 C172.64748,203.000985 173.341666,203.365234 174.154642,203.365234 C175.326593,203.365234 176.107882,202.562829 176.498533,200.957995 Z M176.704415,196.460257 C176.672741,195.15105 176.392955,194.16652 175.865049,193.506637 C175.337143,192.846754 174.708944,192.516818 173.980433,192.516818 C173.20969,192.516818 172.560376,192.859952 172.03247,193.54623 C171.494005,194.243066 171.230056,195.214399 171.240614,196.460257 L176.704415,196.460257 Z M186.792651,206.310936 L183.13428,206.310936 L183.13428,189.491931 L186.52342,189.491931 L186.52342,191.883334 C187.104117,190.764173 187.624096,190.022476 188.083375,189.658221 C188.542653,189.293966 189.073191,189.111841 189.675004,189.111841 C190.509095,189.111841 191.306221,189.391627 192.066406,189.951207 L190.926135,193.831298 C190.324322,193.345624 189.754192,193.102791 189.215728,193.102791 C188.708938,193.102791 188.262864,193.290195 187.877492,193.665008 C187.492121,194.039821 187.214974,194.718171 187.046044,195.700076 C186.877114,196.681981 186.792651,198.487393 186.792651,201.116366 L186.792651,206.310936 Z" id="Blox-Page-Builder" fill="#FFFFFF"></path>
    </g>
</svg>